<?xml version="1.0" encoding="UTF-8"?>
<svg width="29px" height="29px" viewBox="0 0 29 29" version="1.1" xmlns="http://www.w3.org/2000/svg" xmlns:xlink="http://www.w3.org/1999/xlink">
    <!-- Generator: Sketch 54 (76480) - https://sketchapp.com -->
    <title>Group 10</title>
    <desc>Created with Sketch.</desc>
    <g id="5.-Website" stroke="none" stroke-width="1" fill="none" fill-rule="evenodd">
        <g id="Artboard-Copy-2" transform="translate(-48.000000, -36.000000)" fill="#1500FF">
            <g id="Group-10" transform="translate(32.000000, 21.000000)">
                <g id="Group-9" transform="translate(30.000000, 30.000000) rotate(-45.000000) translate(-30.000000, -30.000000) translate(9.000000, 9.000000)">
                    <g id="Group-8" transform="translate(21.468612, 20.951190) rotate(45.000000) translate(-21.468612, -20.951190) translate(6.968612, 6.451190)">
                        <g id="Group-4" fill-rule="nonzero">
                            <path d="M22.2514057,2.84534714 L12.3977234,12.7911379 L11.6461982,12.5348245 C9.25205608,11.7182843 6.59260036,12.3365586 4.77459341,14.2012532 C2.14389896,16.8995057 2.14389896,21.2794733 4.77459341,23.9777258 C7.39833598,26.6688479 11.6469391,26.6688479 14.2706817,23.9777258 C16.0967158,22.1047979 16.7010347,19.3563808 15.8942298,16.8857371 L15.6439816,16.1194127 L25.5707682,6.09974456 L25.812604,2.84534714 L22.2514057,2.84534714 Z M18.5542282,16.8589512 C19.3008649,20.0351941 18.4144292,23.4342481 16.0954222,25.8128088 C12.4668245,29.5345914 6.57845063,29.5345914 2.94985289,25.8128088 C-0.671792972,22.0981565 -0.671792972,16.0808225 2.94985289,12.3661703 C5.2671977,9.98931443 8.58235332,9.0756034 11.6840081,9.83452593 L21.1923846,0.237268782 L28.5816686,0.237268782 L28.0594502,7.2647921 L18.5542282,16.8589512 Z" id="Combined-Shape"></path>
                        </g>
                        <path d="M9.94138097,19.0666845 C10.6934527,19.8305073 10.6934527,21.0691262 9.94138097,21.8330677 C9.18930921,22.5968906 7.969746,22.5968906 7.21755751,21.8330677 C6.46548574,21.0691262 6.46548574,19.8305073 7.21755751,19.0666845 C7.969746,18.3028616 9.18930921,18.3028616 9.94138097,19.0666845" id="Fill-5"></path>
                    </g>
                    <polygon id="Rectangle-3-Copy-2" points="23.6957833 20.7226412 26.2637373 20.7226412 26.2637373 23.3307196 23.6957833 23.3307196"></polygon>
                    <polygon id="Rectangle-3-Copy-3" points="27.5477144 20.7226412 30.1156685 20.7226412 30.1156685 23.3307196 27.5477144 23.3307196"></polygon>
                    <polygon id="Rectangle-3-Copy-4" points="31.3996455 20.7226412 33.9675996 20.7226412 33.9675996 23.3307196 31.3996455 23.3307196"></polygon>
                </g>
            </g>
        </g>
    </g>
</svg>